<?xml version="1.0" encoding="UTF-8" standalone="no"?>
<!DOCTYPE svg PUBLIC "-//W3C//DTD SVG 1.1//EN"
 "http://www.w3.org/Graphics/SVG/1.1/DTD/svg11.dtd">
<!-- Generated by graphviz version 2.47.0 (20210316.0004)
 -->
<!-- Title: dbml Pages: 1 -->
<svg width="1187pt" height="1526pt"
 viewBox="0.00 0.00 1186.68 1526.07" xmlns="http://www.w3.org/2000/svg" xmlns:xlink="http://www.w3.org/1999/xlink">
<g id="graph0" class="graph" transform="scale(1 1) rotate(0) translate(4 1522.07)">
<title>dbml</title>
<!-- Album -->
<g id="Album" class="node">
<title>Album</title>
<ellipse fill="none" stroke="black" stroke-width="0" cx="915.64" cy="-940.53" rx="263.09" ry="214.92"/>
<polygon fill="#1d71b8" stroke="transparent" points="731.64,-1030.53 731.64,-1090.53 1099.64,-1090.53 1099.64,-1030.53 731.64,-1030.53"/>
<polygon fill="none" stroke="#29235c" points="731.64,-1030.53 731.64,-1090.53 1099.64,-1090.53 1099.64,-1030.53 731.64,-1030.53"/>
<text text-anchor="start" x="808.06" y="-1051.73" font-family="Helvetica,sans-Serif" font-weight="bold" font-size="32.00" fill="#ffffff"> &#160;&#160;&#160;&#160;&#160;&#160;Album &#160;&#160;&#160;&#160;&#160;&#160;</text>
<polygon fill="#e7e2dd" stroke="transparent" points="731.64,-970.53 731.64,-1030.53 1099.64,-1030.53 1099.64,-970.53 731.64,-970.53"/>
<polygon fill="none" stroke="#29235c" points="731.64,-970.53 731.64,-1030.53 1099.64,-1030.53 1099.64,-970.53 731.64,-970.53"/>
<text text-anchor="start" x="742.64" y="-991.73" font-family="Helvetica,sans-Serif" font-weight="bold" font-size="32.00" fill="#29235c">id</text>
<text text-anchor="start" x="767.53" y="-991.73" font-family="Helvetica,sans-Serif" font-size="32.00" fill="#29235c"> &#160;&#160;&#160;</text>
<text text-anchor="start" x="946.42" y="-991.73" font-family="Helvetica,sans-Serif" font-style="italic" font-size="32.00" fill="#29235c">INTEGER</text>
<polygon fill="#e7e2dd" stroke="transparent" points="731.64,-910.53 731.64,-970.53 1099.64,-970.53 1099.64,-910.53 731.64,-910.53"/>
<polygon fill="none" stroke="#29235c" points="731.64,-910.53 731.64,-970.53 1099.64,-970.53 1099.64,-910.53 731.64,-910.53"/>
<text text-anchor="start" x="742.64" y="-930.73" font-family="Helvetica,sans-Serif" font-size="32.00" fill="#29235c">name &#160;&#160;&#160;</text>
<text text-anchor="start" x="932.22" y="-931.73" font-family="Helvetica,sans-Serif" font-style="italic" font-size="32.00" fill="#29235c">VARCHAR</text>
<polygon fill="#e7e2dd" stroke="transparent" points="731.64,-850.53 731.64,-910.53 1099.64,-910.53 1099.64,-850.53 731.64,-850.53"/>
<polygon fill="none" stroke="#29235c" points="731.64,-850.53 731.64,-910.53 1099.64,-910.53 1099.64,-850.53 731.64,-850.53"/>
<text text-anchor="start" x="742.51" y="-870.73" font-family="Helvetica,sans-Serif" font-size="32.00" fill="#29235c">description &#160;&#160;&#160;</text>
<text text-anchor="start" x="932.43" y="-871.73" font-family="Helvetica,sans-Serif" font-style="italic" font-size="32.00" fill="#29235c">VARCHAR</text>
<polygon fill="#e7e2dd" stroke="transparent" points="731.64,-790.53 731.64,-850.53 1099.64,-850.53 1099.64,-790.53 731.64,-790.53"/>
<polygon fill="none" stroke="#29235c" points="731.64,-790.53 731.64,-850.53 1099.64,-850.53 1099.64,-790.53 731.64,-790.53"/>
<text text-anchor="start" x="742.64" y="-810.73" font-family="Helvetica,sans-Serif" font-size="32.00" fill="#29235c">creation_date &#160;&#160;&#160;</text>
<text text-anchor="start" x="1003.31" y="-811.73" font-family="Helvetica,sans-Serif" font-style="italic" font-size="32.00" fill="#29235c">DATE</text>
<polygon fill="none" stroke="#29235c" stroke-width="2" points="730.64,-789.53 730.64,-1091.53 1100.64,-1091.53 1100.64,-789.53 730.64,-789.53"/>
</g>
<!-- Category -->
<g id="Category" class="node">
<title>Category</title>
<ellipse fill="none" stroke="black" stroke-width="0" cx="915.64" cy="-172.53" rx="263.09" ry="172.57"/>
<polygon fill="#1d71b8" stroke="transparent" points="731.64,-232.53 731.64,-292.53 1099.64,-292.53 1099.64,-232.53 731.64,-232.53"/>
<polygon fill="none" stroke="#29235c" points="731.64,-232.53 731.64,-292.53 1099.64,-292.53 1099.64,-232.53 731.64,-232.53"/>
<text text-anchor="start" x="788.49" y="-253.73" font-family="Helvetica,sans-Serif" font-weight="bold" font-size="32.00" fill="#ffffff"> &#160;&#160;&#160;&#160;&#160;&#160;Category &#160;&#160;&#160;&#160;&#160;&#160;</text>
<polygon fill="#e7e2dd" stroke="transparent" points="731.64,-172.53 731.64,-232.53 1099.64,-232.53 1099.64,-172.53 731.64,-172.53"/>
<polygon fill="none" stroke="#29235c" points="731.64,-172.53 731.64,-232.53 1099.64,-232.53 1099.64,-172.53 731.64,-172.53"/>
<text text-anchor="start" x="742.64" y="-193.73" font-family="Helvetica,sans-Serif" font-weight="bold" font-size="32.00" fill="#29235c">id</text>
<text text-anchor="start" x="767.53" y="-193.73" font-family="Helvetica,sans-Serif" font-size="32.00" fill="#29235c"> &#160;&#160;&#160;</text>
<text text-anchor="start" x="946.42" y="-193.73" font-family="Helvetica,sans-Serif" font-style="italic" font-size="32.00" fill="#29235c">INTEGER</text>
<polygon fill="#e7e2dd" stroke="transparent" points="731.64,-112.53 731.64,-172.53 1099.64,-172.53 1099.64,-112.53 731.64,-112.53"/>
<polygon fill="none" stroke="#29235c" points="731.64,-112.53 731.64,-172.53 1099.64,-172.53 1099.64,-112.53 731.64,-112.53"/>
<text text-anchor="start" x="742.64" y="-132.73" font-family="Helvetica,sans-Serif" font-size="32.00" fill="#29235c">name &#160;&#160;&#160;</text>
<text text-anchor="start" x="932.22" y="-133.73" font-family="Helvetica,sans-Serif" font-style="italic" font-size="32.00" fill="#29235c">VARCHAR</text>
<polygon fill="#e7e2dd" stroke="transparent" points="731.64,-52.53 731.64,-112.53 1099.64,-112.53 1099.64,-52.53 731.64,-52.53"/>
<polygon fill="none" stroke="#29235c" points="731.64,-52.53 731.64,-112.53 1099.64,-112.53 1099.64,-52.53 731.64,-52.53"/>
<text text-anchor="start" x="742.51" y="-72.73" font-family="Helvetica,sans-Serif" font-size="32.00" fill="#29235c">description &#160;&#160;&#160;</text>
<text text-anchor="start" x="932.43" y="-73.73" font-family="Helvetica,sans-Serif" font-style="italic" font-size="32.00" fill="#29235c">VARCHAR</text>
<polygon fill="none" stroke="#29235c" stroke-width="2" points="730.64,-51.53 730.64,-293.53 1100.64,-293.53 1100.64,-51.53 730.64,-51.53"/>
</g>
<!-- Location -->
<g id="Location" class="node">
<title>Location</title>
<ellipse fill="none" stroke="black" stroke-width="0" cx="915.64" cy="-535.53" rx="263.09" ry="172.57"/>
<polygon fill="#1d71b8" stroke="transparent" points="731.64,-595.53 731.64,-655.53 1099.64,-655.53 1099.64,-595.53 731.64,-595.53"/>
<polygon fill="none" stroke="#29235c" points="731.64,-595.53 731.64,-655.53 1099.64,-655.53 1099.64,-595.53 731.64,-595.53"/>
<text text-anchor="start" x="792.92" y="-616.73" font-family="Helvetica,sans-Serif" font-weight="bold" font-size="32.00" fill="#ffffff"> &#160;&#160;&#160;&#160;&#160;&#160;Location &#160;&#160;&#160;&#160;&#160;&#160;</text>
<polygon fill="#e7e2dd" stroke="transparent" points="731.64,-535.53 731.64,-595.53 1099.64,-595.53 1099.64,-535.53 731.64,-535.53"/>
<polygon fill="none" stroke="#29235c" points="731.64,-535.53 731.64,-595.53 1099.64,-595.53 1099.64,-535.53 731.64,-535.53"/>
<text text-anchor="start" x="742.64" y="-556.73" font-family="Helvetica,sans-Serif" font-weight="bold" font-size="32.00" fill="#29235c">id</text>
<text text-anchor="start" x="767.53" y="-556.73" font-family="Helvetica,sans-Serif" font-size="32.00" fill="#29235c"> &#160;&#160;&#160;</text>
<text text-anchor="start" x="946.42" y="-556.73" font-family="Helvetica,sans-Serif" font-style="italic" font-size="32.00" fill="#29235c">INTEGER</text>
<polygon fill="#e7e2dd" stroke="transparent" points="731.64,-475.53 731.64,-535.53 1099.64,-535.53 1099.64,-475.53 731.64,-475.53"/>
<polygon fill="none" stroke="#29235c" points="731.64,-475.53 731.64,-535.53 1099.64,-535.53 1099.64,-475.53 731.64,-475.53"/>
<text text-anchor="start" x="742.64" y="-495.73" font-family="Helvetica,sans-Serif" font-size="32.00" fill="#29235c">name &#160;&#160;&#160;</text>
<text text-anchor="start" x="932.22" y="-496.73" font-family="Helvetica,sans-Serif" font-style="italic" font-size="32.00" fill="#29235c">VARCHAR</text>
<polygon fill="#e7e2dd" stroke="transparent" points="731.64,-415.53 731.64,-475.53 1099.64,-475.53 1099.64,-415.53 731.64,-415.53"/>
<polygon fill="none" stroke="#29235c" points="731.64,-415.53 731.64,-475.53 1099.64,-475.53 1099.64,-415.53 731.64,-415.53"/>
<text text-anchor="start" x="742.51" y="-435.73" font-family="Helvetica,sans-Serif" font-size="32.00" fill="#29235c">description &#160;&#160;&#160;</text>
<text text-anchor="start" x="932.43" y="-436.73" font-family="Helvetica,sans-Serif" font-style="italic" font-size="32.00" fill="#29235c">VARCHAR</text>
<polygon fill="none" stroke="#29235c" stroke-width="2" points="730.64,-414.53 730.64,-656.53 1100.64,-656.53 1100.64,-414.53 730.64,-414.53"/>
</g>
<!-- Photograph -->
<g id="Photograph" class="node">
<title>Photograph</title>
<ellipse fill="none" stroke="black" stroke-width="0" cx="308.3" cy="-782.53" rx="308.1" ry="384.83"/>
<polygon fill="#1d71b8" stroke="transparent" points="92.3,-992.53 92.3,-1052.53 524.3,-1052.53 524.3,-992.53 92.3,-992.53"/>
<polygon fill="none" stroke="#29235c" points="92.3,-992.53 92.3,-1052.53 524.3,-1052.53 524.3,-992.53 92.3,-992.53"/>
<text text-anchor="start" x="163.34" y="-1013.73" font-family="Helvetica,sans-Serif" font-weight="bold" font-size="32.00" fill="#ffffff"> &#160;&#160;&#160;&#160;&#160;&#160;Photograph &#160;&#160;&#160;&#160;&#160;&#160;</text>
<polygon fill="#e7e2dd" stroke="transparent" points="92.3,-932.53 92.3,-992.53 524.3,-992.53 524.3,-932.53 92.3,-932.53"/>
<polygon fill="none" stroke="#29235c" points="92.3,-932.53 92.3,-992.53 524.3,-992.53 524.3,-932.53 92.3,-932.53"/>
<text text-anchor="start" x="103.3" y="-953.73" font-family="Helvetica,sans-Serif" font-weight="bold" font-size="32.00" fill="#29235c">id</text>
<text text-anchor="start" x="128.19" y="-953.73" font-family="Helvetica,sans-Serif" font-size="32.00" fill="#29235c"> &#160;&#160;&#160;</text>
<text text-anchor="start" x="371.08" y="-953.73" font-family="Helvetica,sans-Serif" font-style="italic" font-size="32.00" fill="#29235c">INTEGER</text>
<polygon fill="#e7e2dd" stroke="transparent" points="92.3,-872.53 92.3,-932.53 524.3,-932.53 524.3,-872.53 92.3,-872.53"/>
<polygon fill="none" stroke="#29235c" points="92.3,-872.53 92.3,-932.53 524.3,-932.53 524.3,-872.53 92.3,-872.53"/>
<text text-anchor="start" x="103.3" y="-892.73" font-family="Helvetica,sans-Serif" font-size="32.00" fill="#29235c">title &#160;&#160;&#160;</text>
<text text-anchor="start" x="356.87" y="-893.73" font-family="Helvetica,sans-Serif" font-style="italic" font-size="32.00" fill="#29235c">VARCHAR</text>
<polygon fill="#e7e2dd" stroke="transparent" points="92.3,-812.53 92.3,-872.53 524.3,-872.53 524.3,-812.53 92.3,-812.53"/>
<polygon fill="none" stroke="#29235c" points="92.3,-812.53 92.3,-872.53 524.3,-872.53 524.3,-812.53 92.3,-812.53"/>
<text text-anchor="start" x="103.3" y="-832.73" font-family="Helvetica,sans-Serif" font-size="32.00" fill="#29235c">description &#160;&#160;&#160;</text>
<text text-anchor="start" x="356.87" y="-833.73" font-family="Helvetica,sans-Serif" font-style="italic" font-size="32.00" fill="#29235c">VARCHAR</text>
<polygon fill="#e7e2dd" stroke="transparent" points="92.3,-752.53 92.3,-812.53 524.3,-812.53 524.3,-752.53 92.3,-752.53"/>
<polygon fill="none" stroke="#29235c" points="92.3,-752.53 92.3,-812.53 524.3,-812.53 524.3,-752.53 92.3,-752.53"/>
<text text-anchor="start" x="103.3" y="-772.73" font-family="Helvetica,sans-Serif" font-size="32.00" fill="#29235c">upload_date &#160;&#160;&#160;</text>
<text text-anchor="start" x="427.97" y="-773.73" font-family="Helvetica,sans-Serif" font-style="italic" font-size="32.00" fill="#29235c">DATE</text>
<polygon fill="#e7e2dd" stroke="transparent" points="92.3,-692.53 92.3,-752.53 524.3,-752.53 524.3,-692.53 92.3,-692.53"/>
<polygon fill="none" stroke="#29235c" points="92.3,-692.53 92.3,-752.53 524.3,-752.53 524.3,-692.53 92.3,-692.53"/>
<text text-anchor="start" x="103.02" y="-712.73" font-family="Helvetica,sans-Serif" font-size="32.00" fill="#29235c">photographer_id &#160;&#160;&#160;</text>
<text text-anchor="start" x="371.19" y="-713.73" font-family="Helvetica,sans-Serif" font-style="italic" font-size="32.00" fill="#29235c">INTEGER</text>
<polygon fill="#e7e2dd" stroke="transparent" points="92.3,-632.53 92.3,-692.53 524.3,-692.53 524.3,-632.53 92.3,-632.53"/>
<polygon fill="none" stroke="#29235c" points="92.3,-632.53 92.3,-692.53 524.3,-692.53 524.3,-632.53 92.3,-632.53"/>
<text text-anchor="start" x="103.3" y="-652.73" font-family="Helvetica,sans-Serif" font-size="32.00" fill="#29235c">album_id &#160;&#160;&#160;</text>
<text text-anchor="start" x="371.08" y="-653.73" font-family="Helvetica,sans-Serif" font-style="italic" font-size="32.00" fill="#29235c">INTEGER</text>
<polygon fill="#e7e2dd" stroke="transparent" points="92.3,-572.53 92.3,-632.53 524.3,-632.53 524.3,-572.53 92.3,-572.53"/>
<polygon fill="none" stroke="#29235c" points="92.3,-572.53 92.3,-632.53 524.3,-632.53 524.3,-572.53 92.3,-572.53"/>
<text text-anchor="start" x="103.3" y="-592.73" font-family="Helvetica,sans-Serif" font-size="32.00" fill="#29235c">location_id &#160;&#160;&#160;</text>
<text text-anchor="start" x="371.08" y="-593.73" font-family="Helvetica,sans-Serif" font-style="italic" font-size="32.00" fill="#29235c">INTEGER</text>
<polygon fill="#e7e2dd" stroke="transparent" points="92.3,-512.53 92.3,-572.53 524.3,-572.53 524.3,-512.53 92.3,-512.53"/>
<polygon fill="none" stroke="#29235c" points="92.3,-512.53 92.3,-572.53 524.3,-572.53 524.3,-512.53 92.3,-512.53"/>
<text text-anchor="start" x="103.3" y="-532.73" font-family="Helvetica,sans-Serif" font-size="32.00" fill="#29235c">category_id &#160;&#160;&#160;</text>
<text text-anchor="start" x="371.08" y="-533.73" font-family="Helvetica,sans-Serif" font-style="italic" font-size="32.00" fill="#29235c">INTEGER</text>
<polygon fill="none" stroke="#29235c" stroke-width="2" points="91.3,-511.53 91.3,-1053.53 525.3,-1053.53 525.3,-511.53 91.3,-511.53"/>
</g>
<!-- Photograph&#45;&gt;Album -->
<!-- Photograph&#45;&gt;Album -->
<g id="edge2" class="edge">
<title>Photograph:e&#45;&gt;Album:w</title>
<path fill="none" stroke="#29235c" stroke-width="3" d="M525.3,-662.53C697.47,-662.53 560.73,-986.81 720.23,-1000.11"/>
<polygon fill="#29235c" stroke="#29235c" stroke-width="3" points="720.51,-1003.63 730.64,-1000.53 720.79,-996.63 720.51,-1003.63"/>
<text text-anchor="middle" x="724.42" y="-1010.13" font-family="Helvetica,sans-Serif" font-size="32.00" fill="#29235c">*</text>
<text text-anchor="middle" x="516.4" y="-633.73" font-family="Helvetica,sans-Serif" font-size="32.00" fill="#29235c">1</text>
</g>
<!-- Photograph&#45;&gt;Category -->
<!-- Photograph&#45;&gt;Category -->
<g id="edge4" class="edge">
<title>Photograph:e&#45;&gt;Category:w</title>
<path fill="none" stroke="#29235c" stroke-width="3" d="M525.3,-542.53C698.21,-542.53 560.03,-216.34 720.18,-202.96"/>
<polygon fill="#29235c" stroke="#29235c" stroke-width="3" points="720.79,-206.44 730.64,-202.53 720.51,-199.44 720.79,-206.44"/>
<text text-anchor="middle" x="724.42" y="-173.73" font-family="Helvetica,sans-Serif" font-size="32.00" fill="#29235c">*</text>
<text text-anchor="middle" x="516.4" y="-513.73" font-family="Helvetica,sans-Serif" font-size="32.00" fill="#29235c">1</text>
</g>
<!-- Photograph&#45;&gt;Location -->
<!-- Photograph&#45;&gt;Location -->
<g id="edge6" class="edge">
<title>Photograph:e&#45;&gt;Location:w</title>
<path fill="none" stroke="#29235c" stroke-width="3" d="M525.3,-602.53C614.59,-602.53 636.33,-568.23 720.61,-565.68"/>
<polygon fill="#29235c" stroke="#29235c" stroke-width="3" points="720.69,-569.18 730.64,-565.53 720.59,-562.18 720.69,-569.18"/>
<text text-anchor="middle" x="724.42" y="-536.73" font-family="Helvetica,sans-Serif" font-size="32.00" fill="#29235c">*</text>
<text text-anchor="middle" x="516.4" y="-573.73" font-family="Helvetica,sans-Serif" font-size="32.00" fill="#29235c">1</text>
</g>
<!-- Photographer -->
<g id="Photographer" class="node">
<title>Photographer</title>
<ellipse fill="none" stroke="black" stroke-width="0" cx="915.64" cy="-1345.53" rx="253.29" ry="172.57"/>
<polygon fill="#1d71b8" stroke="transparent" points="738.64,-1405.53 738.64,-1465.53 1092.64,-1465.53 1092.64,-1405.53 738.64,-1405.53"/>
<polygon fill="none" stroke="#29235c" points="738.64,-1405.53 738.64,-1465.53 1092.64,-1465.53 1092.64,-1405.53 738.64,-1405.53"/>
<text text-anchor="start" x="756.47" y="-1426.73" font-family="Helvetica,sans-Serif" font-weight="bold" font-size="32.00" fill="#ffffff"> &#160;&#160;&#160;&#160;&#160;&#160;Photographer &#160;&#160;&#160;&#160;&#160;&#160;</text>
<polygon fill="#e7e2dd" stroke="transparent" points="738.64,-1345.53 738.64,-1405.53 1092.64,-1405.53 1092.64,-1345.53 738.64,-1345.53"/>
<polygon fill="none" stroke="#29235c" points="738.64,-1345.53 738.64,-1405.53 1092.64,-1405.53 1092.64,-1345.53 738.64,-1345.53"/>
<text text-anchor="start" x="749.64" y="-1366.73" font-family="Helvetica,sans-Serif" font-weight="bold" font-size="32.00" fill="#29235c">id</text>
<text text-anchor="start" x="774.53" y="-1366.73" font-family="Helvetica,sans-Serif" font-size="32.00" fill="#29235c"> &#160;&#160;&#160;</text>
<text text-anchor="start" x="939.42" y="-1366.73" font-family="Helvetica,sans-Serif" font-style="italic" font-size="32.00" fill="#29235c">INTEGER</text>
<polygon fill="#e7e2dd" stroke="transparent" points="738.64,-1285.53 738.64,-1345.53 1092.64,-1345.53 1092.64,-1285.53 738.64,-1285.53"/>
<polygon fill="none" stroke="#29235c" points="738.64,-1285.53 738.64,-1345.53 1092.64,-1345.53 1092.64,-1285.53 738.64,-1285.53"/>
<text text-anchor="start" x="749.64" y="-1305.73" font-family="Helvetica,sans-Serif" font-size="32.00" fill="#29235c">name &#160;&#160;&#160;</text>
<text text-anchor="start" x="925.22" y="-1306.73" font-family="Helvetica,sans-Serif" font-style="italic" font-size="32.00" fill="#29235c">VARCHAR</text>
<polygon fill="#e7e2dd" stroke="transparent" points="738.64,-1225.53 738.64,-1285.53 1092.64,-1285.53 1092.64,-1225.53 738.64,-1225.53"/>
<polygon fill="none" stroke="#29235c" points="738.64,-1225.53 738.64,-1285.53 1092.64,-1285.53 1092.64,-1225.53 738.64,-1225.53"/>
<text text-anchor="start" x="749.61" y="-1245.73" font-family="Helvetica,sans-Serif" font-size="32.00" fill="#29235c">biography &#160;&#160;&#160;</text>
<text text-anchor="start" x="925.43" y="-1246.73" font-family="Helvetica,sans-Serif" font-style="italic" font-size="32.00" fill="#29235c">VARCHAR</text>
<polygon fill="none" stroke="#29235c" stroke-width="2" points="737.64,-1224.53 737.64,-1466.53 1093.64,-1466.53 1093.64,-1224.53 737.64,-1224.53"/>
</g>
<!-- Photograph&#45;&gt;Photographer -->
<!-- Photograph&#45;&gt;Photographer -->
<g id="edge8" class="edge">
<title>Photograph:e&#45;&gt;Photographer:w</title>
<path fill="none" stroke="#29235c" stroke-width="3" d="M525.3,-722.53C827.05,-722.53 441.31,-1360.95 727.62,-1375.29"/>
<polygon fill="#29235c" stroke="#29235c" stroke-width="3" points="727.56,-1378.79 737.64,-1375.53 727.73,-1371.79 727.56,-1378.79"/>
<text text-anchor="middle" x="731.42" y="-1385.13" font-family="Helvetica,sans-Serif" font-size="32.00" fill="#29235c">*</text>
<text text-anchor="middle" x="516.4" y="-693.73" font-family="Helvetica,sans-Serif" font-size="32.00" fill="#29235c">1</text>
</g>
</g>
</svg>
